<svg xmlns="http://www.w3.org/2000/svg" width="3759" height="3569"><path fill="#fff" d="M754 0c3.021 3.021 5.636 5.636 8.2 8.934l1.708 2.192 1.78 2.312 1.88 2.43a440.633 440.633 0 0 1 11.47 15.602c3.773 5.34 7.736 10.528 11.712 15.718 8.128 10.613 16.062 21.36 23.959 32.146 6.682 9.12 13.422 18.186 20.291 27.166 8.041 10.512 15.89 21.156 23.709 31.834 6.682 9.12 13.422 18.186 20.291 27.166 8.041 10.512 15.89 21.156 23.709 31.834 6.682 9.12 13.422 18.186 20.291 27.166 8.041 10.512 15.89 21.156 23.709 31.834 6.682 9.12 13.422 18.186 20.291 27.166 8.041 10.512 15.89 21.156 23.709 31.834 6.682 9.12 13.422 18.186 20.291 27.166 8.041 10.512 15.89 21.156 23.709 31.834 6.682 9.12 13.422 18.186 20.291 27.166 8.041 10.512 15.89 21.156 23.709 31.834 6.7 9.144 13.46 18.23 20.353 27.228a817.575 817.575 0 0 1 16.007 21.632c4.838 6.738 9.865 13.324 14.91 19.908 5.082 6.64 10.068 13.344 15.013 20.085 3.64 4.96 7.308 9.898 11.008 14.813 4.29 5.7 8.53 11.435 12.75 17.188a1227.584 1227.584 0 0 0 15.313 20.375 817.149 817.149 0 0 1 16.006 21.63c4.838 6.74 9.865 13.325 14.91 19.91 5.082 6.639 10.068 13.343 15.013 20.084 3.64 4.96 7.308 9.898 11.008 14.813 4.29 5.7 8.53 11.435 12.75 17.188A1274.791 1274.791 0 0 0 1269 688.5c8.041 10.511 15.89 21.156 23.709 31.834 6.787 9.264 13.635 18.475 20.603 27.604l2.043 2.676c2.405 3.15 4.81 6.3 7.225 9.443 1.31 1.707 2.616 3.418 3.92 5.13.69.902 1.382 1.803 2.094 2.731C1330 770 1330 770 1330 772c3.771-1.957 7.542-3.916 11.313-5.875l3.482-1.807c7.485-3.89 7.485-3.89 14.935-7.845 32.724-17.549 66.696-33.082 101.239-46.673 2.173-.856 4.344-1.716 6.515-2.576 91.202-36.044 186.962-59.89 314.62-73.967 2.769-.246 5.537-.501 8.306-.757 60.39-5.47 123.23-5.14 183.59.5.984.09 1.968.18 2.982.271 85.824 7.812 170.485 24.581 439.127 132.065 4.245 2.336 8.542 4.53 12.891 6.664l.832-1.762c1.14-2.186 2.399-4.065 3.863-6.047l1.645-2.23 1.785-2.399 1.869-2.525c5.302-7.141 10.703-14.206 16.112-21.267A662.646 662.646 0 0 0 2467.5 719c5.35-7.483 10.89-14.807 16.484-22.109 6.791-8.877 13.413-17.873 20.016-26.891 7.909-10.8 15.9-21.526 24.034-32.16 6.77-8.863 13.377-17.842 19.966-26.84 7.909-10.8 15.9-21.526 24.034-32.16 6.77-8.863 13.377-17.842 19.966-26.84 7.909-10.8 15.9-21.526 24.034-32.16 6.77-8.863 13.377-17.842 19.966-26.84 7.909-10.8 15.9-21.526 24.034-32.16 6.77-8.863 13.377-17.842 19.966-26.84 7.909-10.8 15.9-21.526 24.034-32.16 6.77-8.863 13.377-17.842 19.966-26.84 7.909-10.8 15.9-21.526 24.034-32.16 6.77-8.863 13.377-17.842 19.966-26.84 7.909-10.8 15.9-21.526 24.034-32.16 6.77-8.863 13.377-17.842 19.966-26.84 7.93-10.83 15.947-21.579 24.109-32.234A663.165 663.165 0 0 0 2848.5 208c5.35-7.48 10.886-14.803 16.48-22.102 5.08-6.64 10.067-13.344 15.012-20.085 4.122-5.618 8.288-11.2 12.479-16.767a1620.489 1620.489 0 0 0 11.279-15.233 1227.584 1227.584 0 0 1 15.313-20.375c4.911-6.412 9.739-12.868 14.437-19.438 5.35-7.48 10.886-14.803 16.48-22.102 5.08-6.64 10.067-13.344 15.012-20.085 4.116-5.61 8.275-11.185 12.461-16.742 3.353-4.46 6.665-8.947 9.964-13.447C2999.924 4.57 2999.924 4.57 3004 0h1v1862h754c-2.892 2.892-4.719 3.986-8.363 5.645l-3.329 1.528-3.62 1.64c-1.262.577-2.524 1.155-3.785 1.735a5157.907 5157.907 0 0 1-7.932 3.632c-5.6 2.563-11.18 5.167-16.76 7.775l-5.567 2.599a9523.75 9523.75 0 0 0-30.94 14.531 6318.929 6318.929 0 0 1-35.806 16.716 9632.825 9632.825 0 0 0-21.523 10.012l-1.865.87a9694.957 9694.957 0 0 0-32.805 15.402 6255.987 6255.987 0 0 1-35.79 16.708c-10.43 4.834-20.842 9.701-31.257 14.565-4.34 2.028-8.683 4.052-13.025 6.076a10348.796 10348.796 0 0 0-39.758 18.629 6553.805 6553.805 0 0 1-37.96 17.73c-10.43 4.834-20.842 9.701-31.257 14.565-4.34 2.028-8.683 4.052-13.025 6.076a10348.796 10348.796 0 0 0-39.758 18.629 6553.805 6553.805 0 0 1-37.96 17.73c-10.43 4.834-20.842 9.701-31.257 14.565-4.34 2.028-8.683 4.052-13.025 6.076a10348.796 10348.796 0 0 0-39.758 18.628 6618.79 6618.79 0 0 1-37.977 17.739 9632.825 9632.825 0 0 0-21.523 10.012l-1.865.87a9694.957 9694.957 0 0 0-32.805 15.402 6255.987 6255.987 0 0 1-35.79 16.708c-10.43 4.834-20.842 9.701-31.257 14.565-4.34 2.028-8.683 4.052-13.025 6.076a10480.33 10480.33 0 0 0-41.91 19.643 3638.982 3638.982 0 0 1-22.676 10.614l-1.919.889a4569.82 4569.82 0 0 1-8.847 4.084l-3.18 1.469-2.708 1.246c-5.166 2.468-10.272 5.06-15.393 7.621l683 683-1 2c-27.417-9.901-54.832-19.805-82.188-29.875a20952.664 20952.664 0 0 0-59.448-21.776c-5.398-1.97-10.795-3.94-16.192-5.908a118910.888 118910.888 0 0 1-39.749-14.509l-17.703-6.463-9.845-3.594-3.938-1.438-196.874-71.874-1.97-.72a6473062.253 6473062.253 0 0 1-41.32-15.085l-1.966-.718a69023.24 69023.24 0 0 0-27.771-10.132 115422.717 115422.717 0 0 1-19.894-7.256 16073.536 16073.536 0 0 1-61.26-22.505c-18.825-6.95-37.688-13.791-56.57-20.584l-1.977-.712-1.971-.71c-14.764-5.311-29.523-10.634-44.239-16.079a11587.71 11587.71 0 0 0-49.063-18 789723.936 789723.936 0 0 1-48.91-17.847l-1.96-.716-9.78-3.57-17.692-6.46-9.845-3.594-3.938-1.438-7.874-2.874-1.97-.72a18880437.87 18880437.87 0 0 1-41.171-15.03l-1.953-.713a216416.167 216416.167 0 0 0-54.175-19.773l-3.832-1.399c-3.03-1.106-6.06-2.21-9.092-3.31-5.266-1.916-10.517-3.855-15.735-5.895l-2.682-1.035a308.419 308.419 0 0 1-4.811-1.91c-3.906-1.557-3.906-1.557-7.968-1.109-2.684 2.134-5.053 4.551-7.424 7.019-3.937 4.017-7.908 7.887-12.191 11.539-2.565 2.21-5.06 4.49-7.559 6.773-11.207 10.209-22.76 20.018-34.523 29.578-2.18 1.773-4.35 3.554-6.516 5.344-9.866 8.122-20.005 15.832-30.267 23.446a836.35 836.35 0 0 0-5.499 4.124c-2.888 2.184-5.788 4.35-8.695 6.508-.85.634-.85.634-1.715 1.282-15.42 11.483-31.514 21.994-47.557 32.577-1.478.976-2.954 1.953-4.43 2.932-25.43 16.847-51.916 32.018-78.735 46.521l-3.083 1.67-3.039 1.631-2.913 1.604c-2.515 1.271-4.785 2.278-7.407 3.22-5.938 2.27-11.407 4.527-14.499 10.366-2.02 4.708-3.364 9.604-4.73 14.53a843.106 843.106 0 0 1-1.701 5.508 879.042 879.042 0 0 0-3.476 11.472c-2.38 7.982-5.076 15.856-7.759 23.741-1.502 4.434-2.978 8.878-4.456 13.32-.615 1.85-1.23 3.698-1.847 5.547l-.945 2.838c-1.682 5.052-3.366 10.103-5.05 15.154-2.9 8.697-5.798 17.395-8.695 26.093l-12.57 37.724a598627.34 598627.34 0 0 0-20.41 61.243c-6.596 19.8-13.194 39.6-19.792 59.4l-1.238 3.714-6.15 18.454c-16.936 50.819-33.87 101.639-50.803 152.459-4.436 0-5.091-.63-8.094-3.614l-1.581-1.633-1.713-1.72c-1.907-1.92-3.8-3.854-5.694-5.789a4614.503 4614.503 0 0 0-4.12-4.158 3435.882 3435.882 0 0 1-8.963-9.084c-4.853-4.935-9.72-9.857-14.589-14.777-6.151-6.218-12.299-12.44-18.442-18.665a16546.435 16546.435 0 0 0-34.882-35.229l-5.706-5.747-10.105-10.18a91110.52 91110.52 0 0 1-32.704-32.959l-1.51-1.522a23656.777 23656.777 0 0 1-48.327-48.89 13978.8 13978.8 0 0 0-49.758-50.216 5695.668 5695.668 0 0 1-32.007-32.377 2790.266 2790.266 0 0 0-21.026-21.193 1007.317 1007.317 0 0 1-12.093-12.249c-17.266-19.668-17.266-19.668-40.176-29.86-16.93 1.267-31.749 21.095-42.67 32.353-4.078 4.177-8.221 8.287-12.357 12.405a3052.871 3052.871 0 0 0-21.326 21.515c-10.23 10.417-20.522 20.77-30.832 31.108a14023.745 14023.745 0 0 0-50.042 50.463 19686.048 19686.048 0 0 1-48.564 49.036l-1.517 1.526a126490.04 126490.04 0 0 1-15.08 15.168 84887.232 84887.232 0 0 0-30.71 30.902l-1.426 1.436c-31.384 31.595-62.69 63.267-93.986 94.95l-3-1a72.33 72.33 0 0 1-2.719-7.19l-.78-2.318c-.87-2.593-1.722-5.191-2.574-7.79a4849.148 4849.148 0 0 1-6.997-21.072c-1.836-5.555-3.686-11.104-5.534-16.655a20646.37 20646.37 0 0 1-9.586-28.883c-4.612-13.927-9.239-27.85-13.87-41.77l-6.466-19.443-.653-1.967a84949.238 84949.238 0 0 1-16.077-48.415l-6.14-18.503c-5.008-15.094-10.018-30.187-15.028-45.28l-.68-2.048a114211.147 114211.147 0 0 0-22.475-67.637c-4.832-14.53-9.657-29.062-14.473-43.597-3.153-9.517-6.313-19.032-9.478-28.546a8776.332 8776.332 0 0 1-5.47-16.49 5384.25 5384.25 0 0 0-5.006-15.078c-.607-1.824-1.21-3.648-1.811-5.473-.813-2.471-1.637-4.938-2.464-7.404l-.708-2.178c-1.576-4.646-2.948-7.093-7.19-9.499l-2.555-1.225-2.894-1.409-3.122-1.505c-11.45-5.619-22.53-11.749-33.584-18.104-4.072-2.323-8.183-4.575-12.291-6.834a402.243 402.243 0 0 1-19.553-11.553 510.64 510.64 0 0 0-6.025-3.677c-11.883-7.208-23.483-14.814-35.047-22.52l-2.28-1.516c-10.954-7.293-21.753-14.785-32.47-22.421l-2.731-1.937c-15.7-11.151-30.827-22.985-45.73-35.176a654.74 654.74 0 0 0-8.664-6.95c-5.819-4.64-11.432-9.518-17.065-14.381a795.863 795.863 0 0 0-5.29-4.501 510.693 510.693 0 0 1-20.319-18.18 339.676 339.676 0 0 0-11.482-10.344c-3.04-2.708-5.874-5.62-8.719-8.531a323.11 323.11 0 0 0-20.191 6.598l-2.913 1.048a7008.404 7008.404 0 0 0-9.458 3.416l-6.736 2.431a8746.6 8746.6 0 0 0-50.415 18.413 18202.184 18202.184 0 0 1-53.921 19.744l-16.194 5.91a118798.89 118798.89 0 0 0-39.749 14.508l-17.703 6.463-9.845 3.594-3.938 1.438-1.968.718-133.875 48.875a6473063.09 6473063.09 0 0 0-41.32 15.086l-1.967.718a69023.24 69023.24 0 0 1-27.771 10.132 115422.717 115422.717 0 0 0-19.894 7.256 16073.536 16073.536 0 0 0-61.26 22.505c-20.137 7.435-40.32 14.738-60.518 22.005-14.764 5.312-29.523 10.635-44.239 16.08a11587.71 11587.71 0 0 1-49.063 18 789723.934 789723.934 0 0 0-48.91 17.847l-1.96.716-9.78 3.57-17.692 6.46-9.845 3.594a38509515.108 38509515.108 0 0 1-5.906 2.156l-7.875 2.875a6473063.23 6473063.23 0 0 0-41.32 15.086l-1.967.718c-9.256 3.38-18.513 6.757-27.77 10.132a119445.208 119445.208 0 0 0-19.88 7.25 14507.962 14507.962 0 0 0-44.907 16.455l-1.946.717c-6.683 2.463-13.365 4.93-20.046 7.399A4751.39 4751.39 0 0 1 125 2926c0-3 0-3 1.794-5.168l2.579-2.578 1.435-1.446c1.607-1.617 3.225-3.222 4.843-4.828l3.49-3.5c3.222-3.232 6.454-6.454 9.688-9.675 3.506-3.496 7.003-7 10.502-10.504 6.141-6.148 12.288-12.29 18.439-18.429 9.146-9.128 18.283-18.264 27.419-27.402a91435.156 91435.156 0 0 1 46.115-46.09c15.231-15.215 30.46-30.432 45.684-45.653l1.432-1.431 12.946-12.944a606217.19 606217.19 0 0 1 32.186-32.177l1.48-1.48c23.78-23.772 47.565-47.538 71.35-71.303l24.767-24.747 1.552-1.55a486164.283 486164.283 0 0 0 76.005-75.964 3930595.063 3930595.063 0 0 0 91.779-91.744l2.909-2.907A1529499.23 1529499.23 0 0 1 807 2241l-7.708-3.859-2.193-1.098a651.028 651.028 0 0 0-14.552-7.086l-2.121-1.002c-2.225-1.05-4.45-2.096-6.676-3.142l-4.761-2.244a5194.159 5194.159 0 0 0-31.47-14.685A4487.53 4487.53 0 0 1 710 2195a6507.816 6507.816 0 0 0-38.102-17.8 9632.825 9632.825 0 0 1-21.523-10.012l-1.865-.87a9694.957 9694.957 0 0 1-32.805-15.403 6255.987 6255.987 0 0 0-35.79-16.708c-10.43-4.834-20.842-9.701-31.257-14.565-4.34-2.028-8.683-4.052-13.025-6.076a10348.796 10348.796 0 0 1-39.758-18.628 6553.805 6553.805 0 0 0-37.96-17.731c-10.43-4.834-20.842-9.701-31.257-14.565-4.34-2.028-8.683-4.052-13.025-6.076a10348.796 10348.796 0 0 1-39.758-18.628 6618.79 6618.79 0 0 0-37.977-17.739 9632.825 9632.825 0 0 1-21.523-10.012l-1.865-.87a9694.957 9694.957 0 0 1-32.805-15.402 6255.987 6255.987 0 0 0-35.79-16.708c-10.43-4.834-20.842-9.701-31.257-14.565-4.34-2.028-8.683-4.052-13.025-6.076a10348.796 10348.796 0 0 1-39.758-18.629 6553.805 6553.805 0 0 0-37.96-17.73c-10.43-4.834-20.842-9.701-31.257-14.565-4.34-2.028-8.683-4.052-13.025-6.076a77635.45 77635.45 0 0 1-7.383-3.441l-1.845-.86a5239.005 5239.005 0 0 1-22.147-10.386l-2.228-1.051-8.836-4.17c-9.518-4.497-19.057-8.931-28.726-13.097-5.362-2.349-5.362-2.349-6.468-4.561h754V0Zm1987.134 1665.742-2.503 2.503-1.397 1.393c-1.568 1.564-3.132 3.133-4.696 4.7a11503.332 11503.332 0 0 0-12.79 12.791c-3.396 3.4-6.796 6.798-10.195 10.195a49202.506 49202.506 0 0 0-17.895 17.899 96826.82 96826.82 0 0 1-26.61 26.614 258831.18 258831.18 0 0 0-44.753 44.763 384441.571 384441.571 0 0 1-44.334 44.344l-2.781 2.782a3602953.455 3602953.455 0 0 1-42.414 42.417l-1.437 1.437a1134625.52 1134625.52 0 0 0-93.276 93.298l-1.505 1.506a1374995.2 1374995.2 0 0 1-103.556 103.573l-60.695 60.704-2.82 2.82c-62.16 62.17-124.32 124.344-186.477 186.519 1.54 3.298 2.696 4.762 5.813 6.688 3.76 2.389 7.423 4.867 11.062 7.437 15.426 10.73 31.499 20.135 48.125 28.875l2.158 1.14c47.62 24.983 101.055 40.311 154.649 44.68 1.956.16 3.91.339 5.865.52 50.136 3.995 101.404-2.396 149.328-17.34l2.728-.833c52.728-16.236 102.14-43.464 144.52-78.72 2.413-1.993 4.868-3.933 7.314-5.885 10.392-8.51 20.04-17.979 29.438-27.562 5-5 5-5 6.832-6.797 3.856-3.804 7.562-7.672 11.086-11.785 1.61-1.87 3.238-3.716 4.883-5.555 8.35-9.393 15.951-19.246 23.378-29.382a1128.29 1128.29 0 0 1 5.204-7.02c30.717-41.477 53.833-88.784 70.617-137.461l1.202-3.461c28.312-82.29 36.752-172.736-21.202-419.539-1.304-.114-1.304-.114-2.866 1.742ZM1021 1670c-37.752 80.671-51.851 173.047-15.322 423.685 6.906 18.816 14.589 37.271 23.322 55.315l1.38 2.899c11.01 23.096 24.003 45.102 38.62 66.101l1.27 1.834c12.744 18.337 26.618 35.727 41.73 52.166l1.526 1.663c10.976 11.935 22.056 23.88 34.474 34.337l2.996 2.625c9.019 7.886 18.393 15.226 28.004 22.375l1.763 1.319c15.26 11.36 31.502 21.579 48.244 30.602 2.081 1.127 4.148 2.276 6.216 3.427 91.214 50.07 202.222 60.8 301.848 32.3 2.98-.87 5.956-1.754 8.929-2.648l2.41-.721c35.302-10.732 71.326-27.063 101.59-48.279 2.018-1.337 4.04-2.67 6.063-4 4.934-3.285 9.735-6.723 14.511-10.234A189.507 189.507 0 0 1 1679 2329c-1.531-3.618-3.681-5.931-6.447-8.697l-1.386-1.393c-1.542-1.549-3.09-3.09-4.64-4.632-1.12-1.12-2.238-2.243-3.357-3.365-3.093-3.1-6.193-6.194-9.294-9.287-3.365-3.36-6.724-6.725-10.084-10.089-5.896-5.901-11.796-11.8-17.698-17.695a47521.732 47521.732 0 0 1-26.316-26.311c-14.75-14.757-29.505-29.508-44.262-44.257-14.618-14.609-29.233-29.22-43.846-43.833l-2.75-2.75a1973265.057 1973265.057 0 0 1-41.956-41.955l-1.422-1.422a383279.127 383279.127 0 0 0-69.966-69.944 568528.232 568528.232 0 0 1-118.863-118.843c-26.16-26.16-52.32-52.317-78.484-78.473l-2.765-2.765-11.012-11.01c-12.793-12.789-25.585-25.58-38.376-38.37a248613.78 248613.78 0 0 0-49.443-49.428 97160.854 97160.854 0 0 1-26.174-26.169 43266.89 43266.89 0 0 0-17.45-17.442c-3.323-3.32-6.645-6.64-9.965-9.962a9299.835 9299.835 0 0 0-9.045-9.04c-1.091-1.09-2.182-2.18-3.27-3.272-1.467-1.47-2.937-2.935-4.407-4.4l-2.475-2.475c-1.548-1.835-1.548-1.835-2.847-1.721Zm713 747c3.906 4.557 7.762 8.906 11.999 13.119l1.735 1.738c1.9 1.901 3.803 3.8 5.707 5.697l4.11 4.112c3.707 3.706 7.416 7.41 11.126 11.112 3.881 3.875 7.76 7.753 11.639 11.631 7.34 7.336 14.681 14.67 22.024 22.003 8.363 8.351 16.722 16.705 25.081 25.06 17.19 17.179 34.383 34.355 51.579 51.528 4.566-3.822 8.918-7.773 13.119-11.992l1.738-1.733c1.901-1.898 3.8-3.799 5.697-5.7l4.112-4.106c3.706-3.702 7.41-7.407 11.112-11.113 3.875-3.878 7.753-7.753 11.631-11.63a54496.79 54496.79 0 0 0 19.506-19.51c7.526-7.532 15.055-15.059 22.585-22.584 6.465-6.46 12.928-12.923 19.39-19.386 3.859-3.862 7.72-7.722 11.582-11.581 3.624-3.622 7.246-7.246 10.866-10.872l4.001-4c1.813-1.81 3.622-3.622 5.431-5.436l1.625-1.618c2.496-2.025 2.496-2.025 3.605-4.739h-291Z"/><path fill="#fff" d="M808 2240c0 3 0 3-1.786 5.16l-2.568 2.566-1.429 1.44c-1.6 1.61-3.21 3.209-4.821 4.807a4030.796 4030.796 0 0 1-13.12 13.117c-3.49 3.481-6.973 6.97-10.456 10.458-6.114 6.12-12.234 12.236-18.358 18.348a33928.883 33928.883 0 0 0-27.298 27.282 90722.254 90722.254 0 0 1-45.912 45.887 134449.071 134449.071 0 0 0-45.484 45.451l-1.425 1.425-12.89 12.887c-10.68 10.68-21.362 21.358-32.044 32.036l-1.474 1.474a397643.182 397643.182 0 0 1-71.035 70.988l-24.659 24.639-1.544 1.543a481895.411 481895.411 0 0 0-75.671 75.63 3895739.798 3895739.798 0 0 0-91.375 91.34l-2.897 2.894A1512711.734 1512711.734 0 0 1 129 2922l2 2-7 2c1.55-3.698 3.8-6.05 6.621-8.87l1.443-1.45c1.607-1.613 3.22-3.218 4.833-4.823a6092.702 6092.702 0 0 1 13.176-13.174c3.505-3.498 7.004-7.002 10.503-10.505 6.141-6.145 12.286-12.286 18.432-18.425 9.14-9.128 18.275-18.262 27.408-27.397 15.363-15.365 30.73-30.725 46.1-46.083 15.222-15.21 30.443-30.424 45.662-45.64l1.431-1.432a1407647.875 1407647.875 0 0 0 45.125-45.118l1.48-1.48a601201.972 601201.972 0 0 1 96.073-96.027l1.55-1.55a728613.961 728613.961 0 0 0 106.667-106.632 3929733.21 3929733.21 0 0 1 63.974-63.957C677.046 2370.887 739.62 2308.344 808 2240Z"/><style>
        path { fill: #000 }

        @media (prefers-color-scheme: dark) {
            path { fill: #fff }
        }
    </style></svg>